<?xml version="1.0" encoding="utf-8"?>
<svg version="1.1" id="layer" xmlns="http://www.w3.org/2000/svg" xmlns:xlink="http://www.w3.org/1999/xlink" x="0px" y="0px"
	 viewBox="0 0 599.90002 202.34145" style="enable-background:new 0 0 599.90002 202.34145;" xml:space="preserve">
<style type="text/css">
	.st0{fill:#D13239;}
	.st1{fill:#B3B2B1;}
</style>
<g>
	<polygon class="st0" points="125.60001,116.63688 175.20001,116.53687 173.40001,127.83686 131.90001,167.33685 
		166.70001,167.33685 164.70001,179.43686 113.50001,179.43686 115.60001,166.93686 155.3,128.83685 123.60001,128.83685 	"/>
	<path class="st0" d="M71.50001,97.33686c-1.1-1.10001-2.6-2-4.3-2.70001c-1.8-0.70001-3.8-1.20001-5.8-1.60001
		c-2.5-0.39999-4.9-0.60001-6.6-0.70001c-1.6-0.10001-2.6-0.10001-2.6-0.10001H30.5H14.4l-14.4,87.2h13.5l5.3-32.29999l26.2,0.10001
		c0,0,10.2,0.39999,17.4-3.39999s9.2-12.5,9.2-12.5s0.8-3.20001,1.5-7.2c0.7-4.29999,1.5-9.5,1.8-12.29999c0.2-1.20001,0.3-2,0.3-2
		s0.2-0.89999,0.2-2.29999c0-1.89999-0.3-4.79999-1.8-7.60001C72.90001,99.03687,72.30001,98.13688,71.50001,97.33686z
		 M61.10001,112.73689c0,0.20001-1.2,7.20001-2.8,15.49999c-0.6,3.20001-3,4.89999-5.8,5.5c-4.6,1-9.6,0.79999-9.6,0.79999
		L21,134.43686l4.8-28.99999l19.8,0.10001c0,0,1.3,0,3.2,0c2.1,0,4.9,0.10001,7.3,0.39999c2,0.29999,3.6,0.70001,4.1,1.29999
		c0.7,0.79999,0.9,1.89999,1,2.89999C61.30001,111.43687,61.10001,112.63688,61.10001,112.73689z"/>
	<polygon class="st0" points="242.30002,92.23689 255.30002,92.23689 240.80002,179.43686 227.80002,179.43686 	"/>
	<polygon class="st0" points="311.60001,116.63688 324.10001,116.53687 328.5,160.83685 347.60001,116.53687 363,116.53687 
		367.5,161.03687 386.60001,116.53687 399.60004,116.53687 372.10001,179.43686 356.79999,179.43686 352.40002,135.43686 
		333,179.43686 318,179.43686 	"/>
	<g>
		<path class="st0" d="M218.40001,117.13688c-3.59999-1.20001-9.90001-1.39999-15.3-1.39999c-5.2,0.10001-7.5,0.29999-9.5,0.70001
			c0,0-9.2,1.29999-14.39999,7.79999c-5.20001,6.49999-6.8,20.6-6.8,20.6s-3.10001,15.60001-2.2,20.79999
			c0.89999,5.20001,2.5,10,8.39999,12.29999S189.5,180.13687,189.5,180.13687s10.5,0.79999,18.40001-1S220,171.73688,220,171.73688
			s1.90001-2.39999,3.20001-5.29999c1.29999-2.89999,1.69998-4.79999,1.79999-5.10001l0.80002-3.39999h-13.5
			c0,0-0.70001,8.89999-8,9.70001c-7.30002,0.79999-11.10001,0.5-12.60001,0.39999c-1.39999-0.10001-9.2,0.29999-8.60001-6.20001
			c0-0.10001,0-0.20001,0-0.39999c0.3-7.39999,1.20001-9.29999,1.20001-9.29999l42.29999-0.10001l1.80002-10.5
			C230.70001,129.63687,229.20001,120.63688,218.40001,117.13688z M215.5,140.03687h-29l1.10001-4.60001c0,0,1-3.60001,3-5.10001
			s4.60001-1.79999,7-2s8.8-0.7,14.10001,0.39999c1.69998,0.29999,3.39999,1.29999,3.79999,2.79999
			C216.60001,134.83685,215.5,140.03687,215.5,140.03687z"/>
		<path class="st0" d="M183.40001,161.53687c0,0.10001,0,0.20001,0,0.29999
			C183.30002,162.33685,183.40001,161.53687,183.40001,161.53687z"/>
	</g>
	<g>
		<path class="st0" d="M263.10001,161.63687c0,0.10001,0,0.20001,0,0.29999
			C263.10001,162.33685,263.10001,161.53687,263.10001,161.63687z"/>
		<path class="st0" d="M298.10001,117.13688c-3.60001-1.20001-9.89999-1.39999-15.30002-1.39999
			c-5.19998,0.10001-7.5,0.29999-9.5,0.70001c0,0-9.19998,1.29999-14.39999,7.79999c-5.19998,6.49999-6.79999,20.6-6.79999,20.6
			S249,160.43689,249.89999,165.63687c0.90001,5.20001,2.5,10,8.39999,12.29999c5.90002,2.29999,10.90002,2.20001,10.90002,2.20001
			s10.5,0.79999,18.39996-1c7.90002-1.89999,12.10004-7.39999,12.10004-7.39999s1.89996-2.39999,3.19998-5.29999
			s1.69998-4.79999,1.80002-5.10001l0.79999-3.39999H292c0,0-0.70001,8.89999-8,9.70001c-7.29999,0.79999-11.10001,0.5-12.60001,0.5
			c-1.39999-0.10001-9.19998,0.29999-8.60001-6.20001c0-0.10001,0-0.20001,0-0.39999
			C263.09998,154.1369,264,152.23691,264,152.23691l42.29999-0.10001l1.79999-10.5
			C310.40002,129.73688,309,120.63688,298.10001,117.13688z M295.20001,140.03687h-29l1.10001-4.60001c0,0,1-3.60001,3-5.10001
			s4.60001-1.79999,7-2s8.80002-0.7,14.10001,0.39999c1.70001,0.29999,3.39999,1.29999,3.79999,2.79999
			C296.29999,134.83685,295.20001,140.03687,295.20001,140.03687z"/>
	</g>
	<path class="st0" d="M414.5,116.63688l8.29999,45.99999l23.5-45.99999L459.5,116.73689l-33.89996,65.7
		c0,0-6.10004,11.89999-9.90002,14.89999s-6.09998,4.39999-9.20001,4.70001c-3.09998,0.29999-4.39996,0.5-7.29999,0L396,201.43689
		l2-11.70001c0,0,5.29999,1,8.40002-0.29999C409.5,188.23688,412,182.83688,412,182.83688l1.60004-2.70001l-12.29999-63.7
		L414.5,116.63688L414.5,116.63688z"/>
	<path class="st1" d="M464.40002,122.83686H478l0.79999-5.29999c0,0,1.5-9.60001,4.70001-11.39999
		c1-0.60001,2.70001-1.10001,4.70001-1.5c3.60004-0.60001,8.10004-0.70001,11.79999-0.60001
		c5.70001,0.20001,7.79999,0.29999,13.60004,0.89999c5.79999,0.70001,4.29999,6.20001,4.29999,6.20001l-1.10004,8.29999
		c0,0-0.5,3.70001-1.79999,6c-1.20001,2.10001-4.39996,3.49999-6.29999,4.1c-4.5,1.5-19.89996,5.39999-19.89996,5.39999
		l-12.10004,3.5c0,0-7.39996,2.20001-11.59998,6.70001c-4.20001,4.60001-5.79999,9.79999-6.40002,12.60001
		c-0.59998,2.70001-3.79999,21.60001-3.79999,21.60001h65.30005l2.20001-13l-51.60004,0.10001l0.90002-5.29999
		c0,0,0.59998-5.5,2.79999-7.29999c0.70001-0.60001,1-1.29999,5.20001-2.79999c2.5-0.89999,10.89996-3.10001,10.89996-3.10001
		l19.5-5.29999c0,0,10.60004-2.70001,14.79999-8.60001c4.20001-5.79999,5.79999-16.89999,5.79999-16.89999
		s1.10004-10.79999,0.29999-14.20001c-0.89996-3.39999-4.09998-7.39999-7.89996-9.20001
		c-3.90002-1.70001-7.90002-2.79999-19.70001-2.60001c-11.70001,0.20001-17.60004,0.70001-23.5,2.89999
		c-6,2.20001-9.40002,6.20001-11.60004,11.79999C465.79999,111.33686,464.40002,122.83686,464.40002,122.83686L464.40002,122.83686z
		"/>
	<path class="st1" d="M587.29999,147.13687L596.5,92.33689h-16.20001l-50.5,54.2L527.5,160.23691h44.10004l-3.20001,19.29999H582
		l3.20001-19.29999h12.5l2.20001-13.10001L587.29999,147.13687z M573.90002,147.13687h-28.5l34.70001-36.99999L573.90002,147.13687z
		"/>
	<path class="st1" d="M100.10001,99.43687h41.60001c0,0,9.3-7.5,15.89999-12.39999c6.60001-4.79999,18.70001-12.5,18.70001-12.5
		l-23.5-11c0,0-19.90001,12.3-28.3,18.10001C116.30001,87.03687,100.10001,99.43687,100.10001,99.43687L100.10001,99.43687z"/>
	<path class="st1" d="M189.40001,66.83688l-19.3-13c0,0,17.39999-9.89999,40.70001-19.2
		c23.2-9.2,35.59999-13.10001,35.59999-13.10001l3.90001,18.4c0,0-22.3,7.5-35.10001,13.5
		C202,59.13688,189.40001,66.83688,189.40001,66.83688L189.40001,66.83688z"/>
	<path class="st1" d="M264.60001,35.93687l-3.39999-18.8c0,0,23.79999-6.3,45.59998-10.39999
		c21.80002-4.10001,50.70001-6,50.70001-6l-9.60001,29.10001c0,0-25.39999-3.5-49.30002-0.2
		C280.10001,31.83687,264.60001,35.93687,264.60001,35.93687L264.60001,35.93687z"/>
	<path class="st1" d="M363.10001,32.33688l16.10001-32.3c0,0,35.20001-0.7,65.59998,4c30.40002,4.7,58.20001,11.89999,57.60004,12.2
		l-77.10004,40.3c0,0-18-11.39999-40.39996-18.39999C372.29999,34.43687,363.10001,32.33688,363.10001,32.33688L363.10001,32.33688z
		"/>
	<path class="st1" d="M439.20001,65.33688l16.89996,12.89999h139.20001c0,0-0.29999-4.5-4-10.89999
		c-2.29999-4-6.5-8.2-10.90002-12.60001c-1.59998-1.60001-8-6.60001-12.79999-9.7c-12.29999-8-19.20001-11.10001-31.89996-16.8
		L439.20001,65.33688L439.20001,65.33688z"/>
	<path class="st0" d="M109.10001,116.53687c-5.2,0-10.2,2.10001-14.39999,4.39999l0.7-4.39999h-13.8l-11.1,62.6h13.9l6.1-34.70001
		c1.3-7,6.5-15.70001,16.8-15.70001h7.2l2.2-12.2h-7.60001V116.53687z"/>
</g>
</svg>
