<?xml version="1.0" encoding="utf-8"?>
<!-- Generator: Adobe Illustrator 25.3.1, SVG Export Plug-In . SVG Version: 6.00 Build 0)  -->
<svg version="1.1" xmlns="http://www.w3.org/2000/svg" xmlns:xlink="http://www.w3.org/1999/xlink" x="0px" y="0px"
	 viewBox="0 0 306 161" style="enable-background:new 0 0 306 161;" xml:space="preserve">
<style type="text/css">
	.st0{fill:url(#SVGID_1_);}
	.st1{fill:#FFFFFF;}
	.st2{fill:url(#SVGID_2_);}
</style>
<g id="Warstwa_1">
</g>
<g id="Warstwa_2">
	<linearGradient id="SVGID_1_" gradientUnits="userSpaceOnUse" x1="153" y1="161" x2="153" y2="-9.094947e-13">
		<stop  offset="0" style="stop-color:#262626"/>
		<stop  offset="1" style="stop-color:#000000"/>
	</linearGradient>
	<path class="st0" d="M280.58328,161H25.4167C11.37943,161,0,149.6205,0,135.5833V25.4166C0,11.3794,11.37943,0,25.4167,0h255.16658
		C294.62061,0,306,11.3794,306,25.4166v110.1667C306,149.6205,294.62061,161,280.58328,161z"/>
	<rect x="126" y="24.08329" class="st1" width="20.75" height="116.25"/>
	<rect x="164.5" y="63.33329" class="st1" width="20.75" height="77"/>
	<polygon class="st1" points="278.25,140.3333 247.06889,99.5833 247.06889,99.5833 275.75,63.33329 251.25,63.33329 
		223.75,98.5008 223.75,24.08329 203,24.08329 203,140.3333 223.75,140.3333 223.75,100.80009 251.25,140.3333 	"/>
	<path class="st1" d="M73.125,62.45829c-6.7383,0-13.0793,1.69561-18.625,4.67881V24.08329H33.75v77.75
		c0,21.7462,17.6288,39.375,39.375,39.375s39.375-17.6288,39.375-39.375S94.8712,62.45829,73.125,62.45829z M73.125,120.4583
		c-10.2863,0-18.625-8.3387-18.625-18.625s8.3387-18.625,18.625-18.625s18.625,8.3387,18.625,18.625
		S83.4113,120.4583,73.125,120.4583z"/>
	
		<radialGradient id="SVGID_2_" cx="78.33331" cy="17.3333" r="60.65278" fx="77.61992" fy="17.15419" gradientUnits="userSpaceOnUse">
		<stop  offset="0" style="stop-color:#FF0000"/>
		<stop  offset="0.49498" style="stop-color:#E83E49"/>
		<stop  offset="1" style="stop-color:#FF00FF"/>
	</radialGradient>
	<circle class="st2" cx="93.375" cy="36.83329" r="18.5"/>
</g>
</svg>
